<svg xmlns="http://www.w3.org/2000/svg" width="126" height="102" viewBox="0 0 126 102"><title>logo-kruit-en-kramer</title><path d="M126 0H0v102h126z" fill="#1d1d1b"/><path d="M121.55 77.1H4.45v21.07h117.1z" fill="#d83541"/><path d="M16.07 10.85v11.63h.07l4.3-11.63h5.28l-4.83 12 5.45 14h-5.45l-4.74-13.24h-.07v13.25H10.9v-26zm14.4 26.01v-26h5.21c3.3 0 9.19.34 9.19 7.45A7.24 7.24 0 0 1 41.16 25l4.55 11.83h-5.45l-4.55-12h-.06v12zM35.64 22h.89c2.37 0 3.3-1.59 3.3-3.73 0-1.86-.89-3.38-3.51-3.24h-.69zM54.9 10.85v16.84c0 2-.24 4.93 2.57 4.93 2.54 0 2.54-1.9 2.57-3.83V10.85h5.17v19c0 2.76-.31 7.46-7.77 7.46-4.82 0-7.71-2.25-7.71-7.11V10.85zm21.64 0v26h-5.17v-26zm17.15 0v4.83h-4.1v21.18h-5.17V15.68h-4v-4.83z" fill="#fff"/><path d="M109.54 35.34a7.72 7.72 0 0 1-4.79 1.87 7.43 7.43 0 0 1-7.25-7.7c0-3 1.46-5.1 3.78-6.86a11.32 11.32 0 0 1-1.84-5.38c0-3.49 2.71-5.7 6.11-5.7 3.09 0 6 1.83 6 5.18 0 3-2.07 5.24-4.2 7l3.47 5.34a33.39 33.39 0 0 0 2.61-2.83l2.74 3.74a16.58 16.58 0 0 1-2.67 2.56l-.21.17 2.71 4.13h-5.48zM106.83 17a1.32 1.32 0 0 0-1.31-1.42 1.47 1.47 0 0 0-.62.1 1.44 1.44 0 0 0-.52.33 1.5 1.5 0 0 0-.35.51 1.56 1.56 0 0 0-.11.6A5.37 5.37 0 0 0 105 19.7a3.18 3.18 0 0 0 1.29-1.12 3.1 3.1 0 0 0 .51-1.62zm-3 9.66a3.42 3.42 0 0 0-.89 1.14 3.38 3.38 0 0 0-.36 1.4 3.12 3.12 0 0 0 2.88 3.38 2.5 2.5 0 0 0 1-.17 2.44 2.44 0 0 0 .82-.56z" fill="#c8d1ec"/><path d="M15.59 45.6v11.63h.06l3.9-11.63h4.77L20 57.61l4.93 14H20l-4.35-13.25h-.06v13.25H10.9v-26zM28.3 71.62v-26H33c3 0 8.34.35 8.34 7.46 0 2.86-1 5.3-3.37 6.72l4.13 11.84h-4.93l-4.12-12H33v12zM33 56.78h.81c2.14 0 3-1.59 3-3.73 0-1.86-.82-3.38-3.18-3.24H33zM54.27 45.6l5.69 26H55l-.89-4.38h-4.77l-.85 4.38h-4.65l5.5-26zM52.2 56.23l-.54-3.93h-.06l-.5 3.93-1 6.93h3.29zM70.84 45.6l2.3 15.4h.06l1.89-15.35h6.29l2.48 26h-4.81l-1.13-18.76h-.07l-.74 6.41-2 12.31h-3.64l-2.29-12.45-.79-5.79v-.49h-.06l-.69 18.74h-5l2.07-26zm26.4 0v4.83H92.5v5.66h4.18v4.83H92.5v5.87h4.81v4.83h-9.49v-26zm4.41 26.02v-26h4.72c3 0 8.33.35 8.33 7.46 0 2.86-1 5.3-3.36 6.72l4.12 11.83h-4.94l-4.12-12h-.06v12zm4.69-14.84h.82c2.13 0 3-1.59 3-3.73 0-1.86-.82-3.38-3.17-3.24h-.63zM10.6 83.2h3.61L16 88.88l2-5.68h3.48v8.54H19.2v-6.56L17 91.74h-2.09l-2.09-6.56v6.56H10.6zm17.57-.14c2.84 0 4.32 1.67 4.32 4.41s-1.5 4.42-4.32 4.42-4.31-1.7-4.31-4.42 1.48-4.41 4.31-4.41zm0 7.14c1.4 0 1.95-1.32 1.95-2.73s-.55-2.72-1.95-2.72-1.94 1.25-1.94 2.72.55 2.73 1.94 2.73zm10.77-7.14c2.83 0 4.31 1.67 4.31 4.41s-1.5 4.42-4.31 4.42-4.31-1.7-4.31-4.42 1.47-4.41 4.31-4.41zm0 7.14c1.39 0 1.94-1.32 1.94-2.73s-.55-2.72-1.94-2.72S37 86 37 87.47s.55 2.73 1.94 2.73zm6.51-7h2.3v8.54h-2.29zm17.17 8.3a12.91 12.91 0 0 1-3.33.39c-2.29 0-4.94-1.15-4.94-4.38s2.28-4.45 5.43-4.45a7.92 7.92 0 0 1 2.6.38l-.18 1.85a4.5 4.5 0 0 0-2.1-.55c-1.86 0-3.39.78-3.39 2.77a2.62 2.62 0 0 0 2.87 2.69 1.93 1.93 0 0 0 .82-.15v-1.69h-1.35v-1.62h3.56zm2.55-8.3h6.06v1.62h-3.77v1.77H71v1.61h-3.54v1.92h3.91v1.62h-6.2zm8.01 0h2.34l1.11 6.56 1.16-6.56h2.91l1.21 6.56 1.12-6.56h2.27l-1.92 8.54h-2.95l-1.21-6.56-1.14 6.56h-3zm17.95-.14c2.84 0 4.32 1.67 4.32 4.41s-1.51 4.42-4.32 4.42-4.31-1.7-4.31-4.42 1.48-4.41 4.31-4.41zm0 7.14c1.4 0 2-1.32 2-2.73s-.55-2.72-2-2.72-1.94 1.25-1.94 2.72.55 2.73 1.94 2.73zm10.59-7.14c2.84 0 4.32 1.67 4.32 4.41s-1.51 4.42-4.32 4.42-4.31-1.7-4.31-4.42 1.48-4.41 4.31-4.41zm0 7.14c1.4 0 2-1.32 2-2.73s-.55-2.72-2-2.72-1.94 1.25-1.94 2.72.55 2.73 1.94 2.73zm6.49-7h2.92L114 89v-5.8h2.09v8.54h-2.84l-3-5.84.07 5.84h-2.1z" fill="#fff"/></svg>